<?xml version="1.0" encoding="UTF-8" standalone="no"?>
<!-- Created with Inkscape (http://www.inkscape.org/) -->
<svg id="svg2" xmlns:rdf="http://www.w3.org/1999/02/22-rdf-syntax-ns#" xmlns="http://www.w3.org/2000/svg" height="17.319mm" width="25.636mm" version="1.1" xmlns:cc="http://creativecommons.org/ns#" xmlns:dc="http://purl.org/dc/elements/1.1/" viewBox="0 0 90.83772 61.367252">
 <metadata id="metadata7">
  <rdf:RDF>
   <cc:Work rdf:about="">
    <dc:format>image/svg+xml</dc:format>
    <dc:type rdf:resource="http://purl.org/dc/dcmitype/StillImage"/>
    <dc:title/>
   </cc:Work>
  </rdf:RDF>
 </metadata>
 <g id="layer1" transform="translate(-226.69 -447.75)">
  <g id="g3371" transform="translate(1.4286 -59.286)">
   <g id="g4201">
    <g>
     <path id="path3338" d="m225.53 567.6c0.15004-0.37631 4.7344-13.273 10.187-28.66 5.453-15.387 10.019-28.166 10.147-28.398 0.12785-0.23227 5.4067 5.9255 11.731 13.684 6.3241 7.7584 11.717 14.162 11.985 14.23 8.5751-15.089 10.594-15.679 19.965-31.421 10.005 25.804 15.921 33.343 26.549 60.717 0.19055 0.39818-25.174-25.74-25.174-25.74-4.7641 6.2433-18.521 28.184-20.117 26.272-10.597-12.695-15.284-16.319-20.541-22.981l-25.005 22.981z" fill="#20b2aa"/>
     <path id="path3342" d="m243.94 521.85c0.68456-1.8906 1.5403-4.2582 1.9017-5.2613l0.65703-1.8238 4.3707 5.117c2.4039 2.8144 4.3975 5.182 4.4302 5.2613s-2.7898 0.14428-6.2724 0.14428h-6.3319l1.2447-3.4375z" fill="#fff"/>
     <path id="path3365" d="m287.62 551.24 3.4671-5.3562 4.8929 5.0883c2.6911 2.7986 4.9009 5.2088 4.9107 5.3562 0.01 0.14732-3.7522 0.26786-8.36 0.26786h-8.3778l3.4671-5.3562z" fill="#20b2aa"/>
     <path id="path3369" d="m242.44 555.59c4.8238-4.4831 7.3817-6.7454 7.5543-6.6812 0.11822 0.044 1.7146 1.6426 3.5476 3.5525l3.3326 3.4724h-7.4021c-6.2562 0-7.3449-0.0532-7.0324-0.34368z" fill="#20b2aa"/>
    </g>
    <path id="path3399" d="m289.11 512.04-6.6071 10.357h11.071z" fill-rule="evenodd" fill="#fff"/>
   </g>
  </g>
 </g>
</svg>
